<?xml version="1.0" standalone="no"?>
<!DOCTYPE svg PUBLIC "-//W3C//DTD SVG 20010904//EN"
 "http://www.w3.org/TR/2001/REC-SVG-20010904/DTD/svg10.dtd">
<svg version="1.0" xmlns="http://www.w3.org/2000/svg"
 width="512.000000pt" height="512.000000pt" viewBox="0 0 512.000000 512.000000"
 preserveAspectRatio="xMidYMid meet">
<metadata>
Created by potrace 1.14, written by Peter Selinger 2001-2017
</metadata>
<g transform="translate(0.000000,512.000000) scale(0.100000,-0.100000)"
fill="#000000" stroke="none">
<path d="M2300 4789 c-754 -93 -1418 -561 -1748 -1232 -112 -227 -185 -465
-216 -705 -20 -158 -21 -425 -1 -579 119 -916 783 -1662 1680 -1888 335 -85
725 -88 1060 -8 905 214 1590 972 1709 1891 20 158 21 425 1 579 -108 826
-665 1526 -1448 1817 -112 42 -279 86 -417 111 -111 20 -501 29 -620 14z m564
-135 c441 -61 869 -276 1192 -598 171 -171 296 -348 404 -571 150 -307 212
-579 212 -925 0 -348 -61 -616 -212 -925 -310 -637 -899 -1067 -1605 -1170
-157 -24 -438 -24 -590 -1 -469 71 -878 277 -1205 605 -321 323 -525 733 -596
1196 -22 148 -22 442 0 590 79 523 338 992 726 1317 356 298 776 468 1240 502
91 6 318 -4 434 -20z"/>
<path d="M1322 3549 c-50 -25 -99 -80 -113 -129 -6 -23 -9 -320 -7 -861 l3
-825 28 -42 c15 -23 46 -54 69 -69 l42 -28 422 -3 423 -3 -6 -37 c-3 -20 -23
-77 -44 -126 -46 -104 -48 -137 -14 -171 l24 -25 401 0 401 0 24 25 c34 33 32
69 -9 158 -19 42 -37 90 -41 109 -3 18 -9 41 -11 50 -5 16 24 18 419 20 l423
3 42 28 c23 15 54 46 69 69 l28 42 0 846 0 846 -28 42 c-15 23 -46 54 -69 69
l-42 28 -1195 3 -1196 2 -43 -21z m2378 -179 c20 -20 20 -33 20 -610 0 -577 0
-590 -20 -610 -20 -20 -33 -20 -1150 -20 -1117 0 -1130 0 -1150 20 -20 20 -20
33 -20 610 0 577 0 590 20 610 20 20 33 20 1150 20 1117 0 1130 0 1150 -20z"/>
<path d="M3069 2611 l-29 -29 0 -147 0 -147 29 -29 29 -29 232 0 232 0 29 29
29 29 0 147 0 147 -29 29 -29 29 -232 0 -232 0 -29 -29z"/>
</g>
</svg>
